<svg width="251" height="316" viewBox="0 0 251 316" fill="none" xmlns="http://www.w3.org/2000/svg">
<path d="M160.861 209.876C160.905 203.824 158.317 198.867 153.158 195.077C152.513 194.67 149.077 192.656 144.157 192.656C142.814 192.656 141.462 192.806 140.137 193.124C133.954 194.555 128.503 199.15 123.928 206.775C112.32 226.124 93.9284 242.505 80.5808 251.385L80.3688 251.517L82.0913 256.889L82.4623 256.65C96.605 247.462 116.145 230.268 128.565 209.575C132.346 203.285 136.622 199.538 141.277 198.425C142.24 198.204 143.229 198.081 144.201 198.081C147.416 198.081 149.687 199.318 150.093 199.547C153.724 202.216 155.473 205.573 155.446 209.841C155.287 232.972 105.933 272.051 90.819 283.484L90.6246 283.625L92.3737 289.103L92.7447 288.82C108.672 276.945 160.676 236.152 160.852 209.885" fill="white"/>
<path d="M143.035 216.494C143.07 216.423 143.079 216.37 143.097 216.299C143.371 215.875 143.538 215.371 143.538 214.833C143.538 213.339 142.337 212.138 140.853 212.138C139.758 212.138 138.821 212.783 138.397 213.728C138.326 213.799 138.256 213.887 138.194 214.002C134.563 220.637 120.094 244.228 86.2608 269.206L86.0665 269.347L87.8067 274.798L88.1777 274.524C123.371 248.893 138.265 225.4 143.026 216.485" fill="white"/>
<path d="M176.135 208.179C176.135 191.021 161.073 176.425 143.229 176.293H143.114C128.15 176.293 116.013 194.432 108.76 205.281L108.61 205.502C107.055 207.826 105.713 209.823 104.838 210.839C96.4019 220.682 82.6832 230.012 75.2541 234.694L75.0332 234.836L76.7293 240.164L77.0915 239.943C83.4429 236.011 99.2552 225.665 108.946 214.364C110.05 213.074 111.437 210.989 113.204 208.365L113.274 208.268C119.493 198.982 131.074 181.717 143.123 181.717H143.212C158.132 181.815 170.728 193.937 170.728 208.179C170.728 217.174 168.043 240.597 143.15 263.71C130.783 275.205 110.474 288.917 95.6245 298.398L95.4037 298.539L97.1174 303.893L97.4796 303.664C112.815 293.927 133.83 279.764 146.833 267.686C173.281 243.106 176.135 217.89 176.135 208.179Z" fill="white"/>
<path d="M190.321 227.865C192.919 212.182 193.899 192.046 178.219 175.453C170.251 167.024 157.178 161.997 143.238 161.997C142.938 161.997 142.628 161.997 142.319 161.997H142.081L142.01 162.227C141.533 163.667 141.038 165.16 140.553 166.688L140.243 167.643L140.729 167.607C141.595 167.563 142.469 167.537 143.353 167.537C149.351 167.537 164.368 168.668 174.28 179.164C188.237 193.937 187.521 211.625 184.968 226.981C178.246 267.606 130.164 299.794 102.117 315.37L100.978 315.998H103.027C104.882 316.007 108.089 315.989 112.161 315.954H112.249L112.32 315.909C138.565 300.518 183.564 268.622 190.321 227.865Z" fill="white"/>
<path d="M101.428 196.914C109.043 185.897 115.112 179.411 124.59 172.122C127.576 169.807 133.212 168.155 139.643 167.696L140.076 167.66L138.326 162.227L138.053 162.244C131.056 162.916 125.094 164.895 121.286 167.811C111.304 175.497 104.944 182.301 96.9672 193.831C90.8013 202.737 75.9077 214.506 70.0599 218.517L69.8567 218.658L71.5616 223.986L71.9238 223.747C77.2681 220.381 94.4408 207.031 101.428 196.923" fill="white"/>
<path d="M198.36 175.948C194.579 169.445 178.078 151.589 147.452 147.153L147.178 147.109L147.081 147.374C146.559 148.867 146.038 150.37 145.508 151.898L145.376 152.296L145.782 152.349C174.651 156.21 190.419 173.068 193.678 178.678C201.982 192.965 206.293 209.416 206.849 228.978L206.911 230.922L207.512 229.066C208.802 225.117 210.082 221.132 211.399 217.094L211.416 217.033V216.962C209.623 201.394 205.356 187.973 198.378 175.939" fill="white"/>
<path d="M91.6229 185.72C91.773 185.446 107.541 158.304 134.528 151.509L134.881 151.43L133.229 146.261L132.929 146.349C103.61 153.868 87.1442 182.645 86.9852 182.928C83.6549 188.176 73.3018 202.145 65.4664 203.682L65.0953 203.753L66.7826 209.036L67.0917 208.957C78.5225 206.059 90.3066 187.805 91.6229 185.72Z" fill="white"/>
<path d="M213.033 171.186C207.644 160.018 186.32 140.173 152.001 134.43L151.727 134.386L151.63 134.66C151.091 136.18 150.543 137.664 150.022 139.131L149.881 139.511L150.287 139.573C186.974 145.378 204.8 166.574 208.157 173.527C213.086 183.758 215.065 191.967 216.469 199.326L216.717 200.625L217.123 199.379C218.077 196.393 219.04 193.433 220.003 190.465L220.029 190.376L220.003 190.288C218.271 183.529 216.063 177.468 213.042 171.195" fill="white"/>
<path d="M73.3637 183.043L74.724 180.887C81.2786 170.373 96.6315 145.757 130.491 138.937L130.862 138.857L129.21 133.679L128.91 133.741C93.0981 141.181 77.012 166.998 70.1305 178.024L68.7966 180.127C65.2808 185.605 63.4081 187.248 61.4382 188.98C61.2704 189.122 61.1025 189.272 60.9347 189.413L60.599 189.713L62.4452 195.492L62.8339 195.094C63.5229 194.387 64.2208 193.742 64.9982 193.062C67.1713 191.154 69.4238 189.183 73.3637 183.052" fill="white"/>
<path d="M126.322 126.108H126.781L125.076 120.771H124.82C92.1352 121.99 66.8179 156.616 59.8216 167.192C58.1344 169.763 56.7829 171.972 55.6698 173.933L55.5991 174.057L58.0196 181.638L58.3552 180.719C60.3693 175.179 88.6282 126.311 126.313 126.108" fill="white"/>
<path d="M76.4378 129.085L76.4731 129.032L76.7116 128.758C89.1318 117.926 117.338 115.62 122.868 115.267L123.3 115.24L121.604 109.93L121.339 109.948C115.474 110.354 100.766 111.821 87.8244 116.583C98.7251 105.123 108.106 96.9066 115.677 92.2326L115.907 92.1001L114.202 86.79L113.848 87.0109C90.7748 100.617 58.5673 141.525 49.2389 153.736L49.1417 153.877L51.1646 160.194L51.5445 159.664C52.7105 158.118 63.1961 144.238 76.4378 129.094" fill="white"/>
<path d="M66.9681 115.929C83.699 92.5949 99.2905 79.0237 110.88 77.7249L111.287 77.6807L109.573 72.2912L109.281 72.3353C92.7536 74.9595 74.7594 95.7756 62.5689 112.775C56.2528 121.584 48.0817 127.981 42.3398 131.78L42.119 131.921L43.815 137.267L44.186 137.037C49.4156 133.724 59.3358 126.567 66.9592 115.938" fill="white"/>
<path d="M58.5407 104.028C72.8778 82.6109 96.5697 67.6968 106.092 62.2807L106.331 62.1481L105.492 59.5417L105.324 59.4798C105.324 59.4798 104.114 59.1088 102.1 58.4461L101.958 58.3931L101.826 58.4726C95.1651 62.3337 82.374 70.4622 70.2719 82.0366C73.5492 72.9096 78.8229 60.9377 86.0046 53.0035L86.3227 52.6501L85.881 52.4734C84.3792 51.8549 82.8334 51.2099 81.2698 50.5384L81.0401 50.4412L80.8811 50.6268C69.0175 64.7104 62.4982 88.0623 61.7032 90.9869C58.8764 94.2736 56.297 97.6487 54.0444 101.015C49.3979 107.951 43.921 113.482 37.7728 117.475L37.5519 117.617L39.2657 122.953L39.6279 122.732C44.557 119.728 51.8272 114.065 58.5496 104.037" fill="white"/>
<path d="M70.157 45.6966L70.2277 45.4227L69.9804 45.299C68.408 44.5039 66.8709 43.6822 65.7049 43.046L65.3338 42.8516L65.219 43.2492C62.9311 51.0597 50.6169 90.6158 32.7199 101.669L32.4991 101.81L34.1775 107.032L34.5308 106.829C54.1592 95.6696 66.7649 57.218 70.157 45.6966Z" fill="white"/>
<path d="M53.1257 35.3062L52.949 35.1914C51.5356 34.2636 50.0604 33.3094 48.5322 32.311L48.0728 32.0195L48.011 32.5496C47.2601 38.8315 43.55 61.2734 27.6847 86.3394L27.6052 86.472L29.7253 93.072L30.1052 92.4889C47.0658 67.1578 51.8448 44.2035 53.108 35.5006L53.1345 35.2797L53.1257 35.3062Z" fill="white"/>
<path d="M35.6262 23.9792V23.8114L33.0733 22.1327C32.1811 21.5407 31.2977 20.9487 30.4232 20.3656L29.8048 19.9591L29.8931 20.6836C31.8631 36.5608 25.8208 57.7128 22.04 68.916L22.0047 69.0309L24.7431 77.5394L25.0788 76.6382C28.5769 67.2992 36.6244 43.4613 35.6262 23.9969" fill="white"/>
<path d="M20.4588 13.7302L14.5314 9.76311L14.6021 10.4699C15.0702 15.3206 16.5455 32.3817 15.4324 48.3473V48.4179L19.3722 60.761L19.5843 59.3473C21.7308 45.5288 21.6337 25.6138 20.4765 13.8804L20.4588 13.7302Z" fill="white"/>
<path d="M10.1057 29.6074C9.31069 20.9134 8.94851 10.2844 8.83367 6.12293V5.94622L8.69233 5.84903C6.88143 4.62974 5.33554 3.58717 4.08999 2.75664L3.96632 2.66829L3.88682 2.61528C1.93457 1.30764 0.750862 0.503617 0.750862 0.503617L0 0L0.26501 0.989564C0.282678 1.07792 0.309179 1.1486 0.33568 1.23695L4.33733 13.7744V13.739L10.3884 32.6821L10.0969 29.6074H10.1057Z" fill="white"/>
<path d="M156.179 122.609L155.914 122.573L155.826 122.83C155.269 124.411 154.722 125.948 154.192 127.433L154.05 127.848L154.501 127.883C159.96 128.281 208.422 132.84 225.621 171.088L225.974 171.893L228.306 164.639L228.236 164.515C209.137 129.271 164.863 123.413 156.17 122.6" fill="white"/>
<path d="M234.269 145.651C214.155 120.559 172.645 112.315 160.411 110.381L160.128 110.336L158.361 115.558L158.759 115.62C167.354 116.981 197.017 122.6 217.997 137.806C223.713 141.958 228.412 146.606 231.946 151.624L232.334 152.181L234.066 146.747L234.384 145.784L234.269 145.643V145.651Z" fill="white"/>
<path d="M164.121 99.1684L163.847 99.1331L163.37 100.582C162.99 101.74 162.601 102.888 162.239 103.984L162.116 104.381L162.522 104.425C171.47 105.556 217.194 112.174 238.553 131.206L238.942 131.559L239.101 131.064C239.613 129.421 240.135 127.777 240.647 126.214L240.709 126.002L240.532 125.86C217.494 106.838 172.84 100.291 164.112 99.1684" fill="white"/>
<path d="M250.638 93.3017C239.234 90.6334 222.273 89.2816 200.242 89.2816C196.77 89.2816 193.404 89.317 190.198 89.3788L189.986 89.3081L189.968 89.3788C179.995 89.5555 171.665 89.9619 166.956 90.227H166.727L166.25 91.729C165.852 92.9483 165.464 94.1411 165.093 95.3074L164.934 95.7756L165.428 95.7491C168.856 95.5459 178.025 95.0511 189.509 94.8479C193.016 95.9523 222.352 105.433 243.05 117.352L243.421 117.573L243.544 117.166C244.057 115.558 244.543 114.038 245.011 112.536L245.099 112.271L244.869 112.139C232.167 104.938 217.035 98.815 205.975 94.7596C224.631 94.9539 239.145 96.2262 249.11 98.5058L249.41 98.5676L249.666 97.7459C250.134 96.2174 250.549 94.8833 250.903 93.7258L251 93.3901L250.655 93.3017H250.638Z" fill="white"/>
<path d="M139.678 315.088L138.724 315.715H139.872C142.699 315.68 145.535 315.653 148.309 315.618H148.406L148.494 315.547C165.905 303.133 181.249 287.928 194.102 270.336L194.155 270.239C195.118 267.271 196.116 264.205 197.141 261.05L200.357 251.137L198.864 253.593C188.405 270.769 169.633 295.376 139.687 315.088" fill="white"/>
<path d="M167.592 314.796L166.815 315.406L170.87 315.362C172.654 315.344 174.209 315.326 175.472 315.309H175.596L175.684 315.229C177.468 313.727 179.103 312.252 181.046 310.493L181.117 310.431L182.239 306.95C182.804 305.201 183.458 303.178 184.209 300.898L184.633 299.573L183.652 300.553C178.67 305.492 173.272 310.281 167.592 314.796Z" fill="white"/>
</svg>
